<svg width="196" height="44" viewBox="0 0 196 44" fill="none" xmlns="http://www.w3.org/2000/svg">
<path fill-rule="evenodd" clip-rule="evenodd" d="M2.75 19.7725L21.01 38.0325H22.99L41.25 19.7725V17.7925L32.12 8.6625L31.13 8.25H12.87L11.88 8.6625L2.75 17.7925V19.7725ZM22 35.0625L5.72 18.7825L13.4475 11H30.5525L38.28 18.7825L22 35.0625ZM22 13.805H29.3975L34.375 18.7825L22 30.8825V13.805Z" fill="black"/>
<path d="M52.24 29.24C51.2933 29.24 50.42 29.0667 49.62 28.72C48.8333 28.36 48.1867 27.8533 47.68 27.2L49.48 25.04C49.8667 25.5467 50.2733 25.9333 50.7 26.2C51.1267 26.4533 51.5867 26.58 52.08 26.58C53.4 26.58 54.06 25.8067 54.06 24.26V17.6H49.14V15H57.28V24.08C57.28 25.8133 56.8533 27.1067 56 27.96C55.1467 28.8133 53.8933 29.24 52.24 29.24ZM65.3803 29.16C64.2336 29.16 63.2136 28.92 62.3203 28.44C61.4403 27.96 60.7403 27.3067 60.2203 26.48C59.7136 25.64 59.4603 24.6867 59.4603 23.62C59.4603 22.54 59.7136 21.5867 60.2203 20.76C60.7403 19.92 61.4403 19.2667 62.3203 18.8C63.2136 18.32 64.2336 18.08 65.3803 18.08C66.5136 18.08 67.527 18.32 68.4203 18.8C69.3136 19.2667 70.0136 19.9133 70.5203 20.74C71.027 21.5667 71.2803 22.5267 71.2803 23.62C71.2803 24.6867 71.027 25.64 70.5203 26.48C70.0136 27.3067 69.3136 27.96 68.4203 28.44C67.527 28.92 66.5136 29.16 65.3803 29.16ZM65.3803 26.6C65.9003 26.6 66.367 26.48 66.7803 26.24C67.1936 26 67.5203 25.66 67.7603 25.22C68.0003 24.7667 68.1203 24.2333 68.1203 23.62C68.1203 22.9933 68.0003 22.46 67.7603 22.02C67.5203 21.58 67.1936 21.24 66.7803 21C66.367 20.76 65.9003 20.64 65.3803 20.64C64.8603 20.64 64.3936 20.76 63.9803 21C63.567 21.24 63.2336 21.58 62.9803 22.02C62.7403 22.46 62.6203 22.9933 62.6203 23.62C62.6203 24.2333 62.7403 24.7667 62.9803 25.22C63.2336 25.66 63.567 26 63.9803 26.24C64.3936 26.48 64.8603 26.6 65.3803 26.6ZM73.3658 29V18.24H76.3458V21.28L75.9258 20.4C76.2458 19.64 76.7591 19.0667 77.4658 18.68C78.1724 18.28 79.0324 18.08 80.0458 18.08V20.96C79.9124 20.9467 79.7924 20.94 79.6858 20.94C79.5791 20.9267 79.4658 20.92 79.3458 20.92C78.4924 20.92 77.7991 21.1667 77.2658 21.66C76.7458 22.14 76.4858 22.8933 76.4858 23.92V29H73.3658ZM86.8828 33.04C85.8695 33.04 84.8895 32.9133 83.9428 32.66C83.0095 32.42 82.2295 32.0533 81.6028 31.56L82.8428 29.32C83.2961 29.6933 83.8695 29.9867 84.5628 30.2C85.2695 30.4267 85.9628 30.54 86.6428 30.54C87.7495 30.54 88.5495 30.2933 89.0428 29.8C89.5495 29.3067 89.8028 28.5733 89.8028 27.6V25.98L90.0028 23.28L89.9628 20.56V18.24H92.9228V27.2C92.9228 29.2 92.4028 30.6733 91.3628 31.62C90.3228 32.5667 88.8295 33.04 86.8828 33.04ZM86.4028 28.48C85.4028 28.48 84.4961 28.2667 83.6828 27.84C82.8828 27.4 82.2361 26.7933 81.7428 26.02C81.2628 25.2333 81.0228 24.32 81.0228 23.28C81.0228 22.2267 81.2628 21.3133 81.7428 20.54C82.2361 19.7533 82.8828 19.1467 83.6828 18.72C84.4961 18.2933 85.4028 18.08 86.4028 18.08C87.3095 18.08 88.1095 18.2667 88.8028 18.64C89.4961 19 90.0361 19.5667 90.4228 20.34C90.8095 21.1 91.0028 22.08 91.0028 23.28C91.0028 24.4667 90.8095 25.4467 90.4228 26.22C90.0361 26.98 89.4961 27.5467 88.8028 27.92C88.1095 28.2933 87.3095 28.48 86.4028 28.48ZM87.0228 25.92C87.5695 25.92 88.0561 25.8133 88.4828 25.6C88.9095 25.3733 89.2428 25.06 89.4828 24.66C89.7228 24.26 89.8428 23.8 89.8428 23.28C89.8428 22.7467 89.7228 22.2867 89.4828 21.9C89.2428 21.5 88.9095 21.1933 88.4828 20.98C88.0561 20.7533 87.5695 20.64 87.0228 20.64C86.4761 20.64 85.9895 20.7533 85.5628 20.98C85.1361 21.1933 84.7961 21.5 84.5428 21.9C84.3028 22.2867 84.1828 22.7467 84.1828 23.28C84.1828 23.8 84.3028 24.26 84.5428 24.66C84.7961 25.06 85.1361 25.3733 85.5628 25.6C85.9895 25.8133 86.4761 25.92 87.0228 25.92ZM101.167 29.16C99.9401 29.16 98.8601 28.92 97.9267 28.44C97.0067 27.96 96.2934 27.3067 95.7867 26.48C95.2801 25.64 95.0267 24.6867 95.0267 23.62C95.0267 22.54 95.2734 21.5867 95.7667 20.76C96.2734 19.92 96.9601 19.2667 97.8267 18.8C98.6934 18.32 99.6734 18.08 100.767 18.08C101.82 18.08 102.767 18.3067 103.607 18.76C104.46 19.2 105.133 19.84 105.627 20.68C106.12 21.5067 106.367 22.5 106.367 23.66C106.367 23.78 106.36 23.92 106.347 24.08C106.333 24.2267 106.32 24.3667 106.307 24.5H97.5667V22.68H104.667L103.467 23.22C103.467 22.66 103.353 22.1733 103.127 21.76C102.9 21.3467 102.587 21.0267 102.187 20.8C101.787 20.56 101.32 20.44 100.787 20.44C100.253 20.44 99.7801 20.56 99.3667 20.8C98.9667 21.0267 98.6534 21.3533 98.4267 21.78C98.2001 22.1933 98.0867 22.6867 98.0867 23.26V23.74C98.0867 24.3267 98.2134 24.8467 98.4667 25.3C98.7334 25.74 99.1001 26.08 99.5667 26.32C100.047 26.5467 100.607 26.66 101.247 26.66C101.82 26.66 102.32 26.5733 102.747 26.4C103.187 26.2267 103.587 25.9667 103.947 25.62L105.607 27.42C105.113 27.98 104.493 28.4133 103.747 28.72C103 29.0133 102.14 29.16 101.167 29.16Z" fill="black"/>
<path d="M106.824 29L113.064 15H116.264L122.524 29H119.124L114.004 16.64H115.284L110.144 29H106.824ZM109.944 26L110.804 23.54H118.004L118.884 26H109.944ZM130.541 29.24C129.434 29.24 128.414 29.0667 127.481 28.72C126.561 28.36 125.754 27.8533 125.061 27.2C124.381 26.5467 123.848 25.78 123.461 24.9C123.088 24.02 122.901 23.0533 122.901 22C122.901 20.9467 123.088 19.98 123.461 19.1C123.848 18.22 124.388 17.4533 125.081 16.8C125.774 16.1467 126.588 15.6467 127.521 15.3C128.454 14.94 129.481 14.76 130.601 14.76C131.841 14.76 132.954 14.9667 133.941 15.38C134.941 15.7933 135.781 16.3933 136.461 17.18L134.381 19.1C133.874 18.5667 133.321 18.1733 132.721 17.92C132.121 17.6533 131.468 17.52 130.761 17.52C130.081 17.52 129.461 17.6267 128.901 17.84C128.341 18.0533 127.854 18.36 127.441 18.76C127.041 19.16 126.728 19.6333 126.501 20.18C126.288 20.7267 126.181 21.3333 126.181 22C126.181 22.6533 126.288 23.2533 126.501 23.8C126.728 24.3467 127.041 24.8267 127.441 25.24C127.854 25.64 128.334 25.9467 128.881 26.16C129.441 26.3733 130.054 26.48 130.721 26.48C131.361 26.48 131.981 26.38 132.581 26.18C133.194 25.9667 133.788 25.6133 134.361 25.12L136.201 27.46C135.441 28.0333 134.554 28.4733 133.541 28.78C132.541 29.0867 131.541 29.24 130.541 29.24ZM133.241 27.04V21.78H136.201V27.46L133.241 27.04ZM142.191 20.64H148.931V23.16H142.191V20.64ZM142.431 26.4H150.051V29H139.211V15H149.791V17.6H142.431V26.4ZM152.629 29V15H155.309L163.569 25.08H162.269V15H165.469V29H162.809L154.529 18.92H155.829V29H152.629ZM175.481 29.24C174.401 29.24 173.394 29.0667 172.461 28.72C171.541 28.36 170.741 27.8533 170.061 27.2C169.381 26.5467 168.848 25.78 168.461 24.9C168.088 24.02 167.901 23.0533 167.901 22C167.901 20.9467 168.088 19.98 168.461 19.1C168.848 18.22 169.381 17.4533 170.061 16.8C170.754 16.1467 171.561 15.6467 172.481 15.3C173.401 14.94 174.408 14.76 175.501 14.76C176.714 14.76 177.808 14.9733 178.781 15.4C179.768 15.8133 180.594 16.4267 181.261 17.24L179.181 19.16C178.701 18.6133 178.168 18.2067 177.581 17.94C176.994 17.66 176.354 17.52 175.661 17.52C175.008 17.52 174.408 17.6267 173.861 17.84C173.314 18.0533 172.841 18.36 172.441 18.76C172.041 19.16 171.728 19.6333 171.501 20.18C171.288 20.7267 171.181 21.3333 171.181 22C171.181 22.6667 171.288 23.2733 171.501 23.82C171.728 24.3667 172.041 24.84 172.441 25.24C172.841 25.64 173.314 25.9467 173.861 26.16C174.408 26.3733 175.008 26.48 175.661 26.48C176.354 26.48 176.994 26.3467 177.581 26.08C178.168 25.8 178.701 25.38 179.181 24.82L181.261 26.74C180.594 27.5533 179.768 28.1733 178.781 28.6C177.808 29.0267 176.708 29.24 175.481 29.24ZM186.812 29V23.28L187.552 25.24L181.392 15H184.832L189.552 22.86H187.572L192.312 15H195.492L189.332 25.24L190.052 23.28V29H186.812Z" fill="#F55F1D"/>
</svg>
